<?xml version="1.0" standalone="no"?>
<!DOCTYPE svg PUBLIC "-//W3C//DTD SVG 20010904//EN"
 "http://www.w3.org/TR/2001/REC-SVG-20010904/DTD/svg10.dtd">
<svg version="1.0" xmlns="http://www.w3.org/2000/svg"
 width="400.000000pt" height="400.000000pt" viewBox="0 0 400.000000 400.000000"
 preserveAspectRatio="xMidYMid meet">
<metadata>
Created by potrace 1.14, written by Peter Selinger 2001-2017
</metadata>
<g transform="translate(0.000000,400.000000) scale(0.100000,-0.100000)"
fill="#000000" stroke="none">
<path d="M1124 3251 c-22 -10 -54 -35 -70 -54 -22 -27 -33 -34 -44 -27 -20 13
-77 12 -101 0 -10 -6 -26 -24 -34 -40 -9 -18 -26 -32 -43 -36 -73 -17 -122
-92 -108 -166 7 -38 46 -85 83 -99 32 -12 89 -12 113 1 14 8 19 5 24 -13 9
-36 67 -98 110 -118 59 -27 122 -24 185 7 29 15 57 34 63 44 10 16 14 16 46 3
98 -41 212 38 212 147 0 71 -54 140 -120 155 -25 5 -30 11 -30 35 0 63 -53
139 -117 166 -45 19 -120 17 -169 -5z"/>
<path d="M2409 3252 c-147 -49 -263 -189 -276 -334 -6 -57 -6 -58 -37 -58
-123 -1 -296 -101 -351 -203 -18 -35 -18 -35 -76 -30 -97 9 -186 -46 -227
-140 -15 -34 -16 -116 -2 -153 6 -15 9 -29 6 -31 -2 -3 -39 3 -81 12 -54 12
-107 16 -183 13 -95 -3 -115 -7 -174 -35 -135 -63 -203 -171 -196 -309 l3 -71
-60 -23 c-159 -61 -345 -162 -345 -187 0 -20 61 -123 73 -123 4 0 40 28 80 63
191 165 356 252 638 336 149 44 147 49 -8 25 -117 -19 -128 -15 -118 40 17 95
122 108 320 41 l100 -33 18 21 c10 12 27 40 37 62 l20 40 0 -249 0 -249 -28
39 c-49 68 -106 103 -296 184 l-98 41 -77 -46 c-42 -25 -96 -63 -120 -84 l-44
-38 38 -23 c20 -13 105 -53 188 -89 125 -55 155 -72 174 -100 26 -39 29 -71 9
-110 -19 -37 -55 -51 -127 -51 -79 0 -137 15 -236 60 l-81 38 -26 -27 c-27
-28 -62 -101 -68 -141 -3 -22 6 -29 82 -67 l85 -42 -113 -1 -113 0 3 -32 c3
-31 6 -33 46 -36 l42 -3 0 -139 c0 -130 1 -139 20 -145 31 -10 60 4 61 28 1
12 1 75 0 140 l-1 117 34 0 c38 0 70 24 62 46 -3 8 -1 14 4 14 6 0 10 -9 10
-19 0 -31 48 -42 72 -17 10 9 50 15 129 18 63 3 122 8 132 12 16 8 17 -4 17
-162 0 -162 1 -171 20 -177 11 -3 29 -3 40 0 16 5 20 15 20 56 0 42 3 50 17
47 10 -2 24 -22 33 -46 22 -59 48 -75 83 -50 16 12 16 16 -1 61 -10 26 -26 55
-34 64 -15 15 -14 20 13 68 16 28 29 55 29 59 0 4 -17 6 -37 4 -29 -2 -42 -10
-60 -36 -12 -18 -24 -38 -26 -45 -9 -27 -15 3 -19 95 l-3 96 39 24 c21 13 53
43 72 67 l34 44 0 -81 0 -81 56 -7 c49 -6 172 0 181 9 1 2 4 74 5 160 l2 157
47 0 c60 0 78 -20 115 -133 37 -114 68 -171 99 -185 54 -25 142 -8 197 38 31
26 31 28 15 45 -25 24 -40 58 -72 155 -36 111 -67 165 -115 196 l-39 26 31 31
c17 18 52 74 79 126 47 94 48 94 54 60 3 -19 25 -156 49 -305 24 -148 51 -284
59 -301 21 -40 86 -71 165 -79 35 -4 62 -12 62 -18 -1 -25 -48 -92 -80 -114
-31 -21 -43 -23 -110 -19 -41 3 -85 9 -98 12 -19 6 -25 1 -43 -40 -20 -45 -21
-46 -35 -26 -8 11 -33 26 -55 32 -28 9 -39 17 -37 28 4 17 14 18 65 7 29 -7
33 -5 39 19 8 32 7 33 -47 43 -77 14 -131 -10 -145 -63 -9 -36 19 -73 72 -96
24 -11 44 -24 44 -30 0 -17 -31 -22 -68 -11 -38 12 -52 5 -52 -30 0 -34 111
-50 163 -23 25 13 37 13 98 0 200 -42 351 7 438 144 42 65 74 163 152 464 l64
247 40 11 c54 15 90 34 150 79 45 34 57 38 126 42 91 6 167 38 233 98 247 228
100 639 -235 658 l-77 4 5 52 c9 98 -66 191 -164 203 l-51 6 -5 42 c-13 119
-114 251 -235 308 -57 27 -81 32 -157 34 -67 2 -104 -2 -146 -15z m267 -847
l143 -260 170 -7 c214 -9 291 -28 326 -82 32 -49 -25 -102 -133 -125 -29 -6
-122 -11 -206 -11 l-154 0 -13 -28 c-8 -15 -74 -137 -148 -270 l-134 -242 -38
0 c-22 0 -39 5 -39 10 0 6 14 128 31 271 16 144 29 262 27 263 -13 10 -493 54
-506 47 -9 -5 -44 -58 -77 -118 -51 -92 -64 -108 -85 -108 -27 0 -25 -15 -29
216 l-1 47 -47 9 c-50 10 -50 11 28 27 l26 6 -4 129 c-1 72 1 132 5 135 5 3
19 2 31 -1 16 -4 36 -33 70 -102 75 -149 47 -140 337 -109 135 15 248 28 250
31 3 2 0 44 -6 93 -6 49 -17 145 -24 214 -8 69 -18 149 -22 178 l-7 53 43 -3
43 -3 143 -260z"/>
<path d="M616 1608 c-62 -62 -139 -151 -171 -197 l-58 -84 24 -19 c13 -10 36
-25 50 -33 l27 -14 32 77 c36 88 104 209 164 297 82 118 74 115 -68 -27z"/>
<path d="M3260 1549 c-39 -16 -59 -39 -70 -81 -6 -21 -15 -38 -20 -38 -4 0
-22 -12 -39 -26 -26 -21 -31 -33 -31 -69 0 -36 5 -48 32 -70 27 -22 39 -26 71
-22 31 4 47 1 69 -16 58 -43 152 -21 185 44 10 20 18 23 52 20 32 -2 46 3 66
23 29 29 31 55 10 97 -10 19 -26 32 -45 36 -16 3 -32 14 -35 24 -7 21 -45 34
-75 26 -13 -3 -24 1 -30 13 -11 20 -69 50 -97 49 -10 0 -29 -5 -43 -10z"/>
<path d="M1868 1199 c-11 -6 -18 -22 -18 -39 0 -23 -5 -30 -19 -30 -20 0 -37
-32 -26 -50 3 -5 15 -10 26 -10 17 0 19 -8 19 -83 0 -107 9 -121 79 -120 61 1
65 4 57 38 -5 18 -13 25 -31 25 -24 0 -25 2 -25 70 l0 70 30 0 c27 0 30 3 30
30 0 27 -3 30 -29 30 -27 0 -30 3 -33 38 -3 40 -26 52 -60 31z"/>
<path d="M1183 1124 c-21 -8 -39 -14 -39 -14 -11 -1 -34 -79 -34 -115 0 -110
76 -162 175 -121 35 15 42 29 26 55 -7 11 -15 11 -47 1 -35 -12 -39 -11 -56
10 -18 22 -23 66 -12 108 10 34 48 26 52 -10 3 -23 8 -28 32 -28 76 0 48 108
-32 122 -14 3 -44 -1 -65 -8z"/>
<path d="M980 1101 c0 -16 6 -31 15 -35 12 -4 15 -25 15 -100 0 -101 3 -106
56 -106 l24 0 0 119 c0 137 -7 151 -71 151 -36 0 -39 -2 -39 -29z"/>
<path d="M1610 1102 c-49 -50 -50 -172 0 -217 25 -23 98 -31 144 -15 38 12 42
20 26 49 -8 16 -14 17 -49 8 -42 -11 -71 1 -71 29 0 11 16 14 65 14 61 0 65 1
71 26 9 35 -12 100 -39 119 -12 8 -43 15 -70 15 -40 0 -54 -5 -77 -28z m98
-34 c21 -21 13 -38 -18 -38 -23 0 -30 5 -30 19 0 17 11 27 31 30 3 1 10 -4 17
-11z"/>
</g>
</svg>
